<?xml version="1.0" encoding="iso-8859-1"?>
<!-- Generator: Adobe Illustrator 25.0.0, SVG Export Plug-In . SVG Version: 6.00 Build 0)  -->
<svg version="1.1" id="&#x5716;&#x5C64;_1" xmlns="http://www.w3.org/2000/svg" xmlns:xlink="http://www.w3.org/1999/xlink" x="0px"
	 y="0px" viewBox="0 0 328.82 132.08" style="enable-background:new 0 0 328.82 132.08;" xml:space="preserve">
<style type="text/css">
	.st0{fill:#FFFFFF;stroke:#005053;stroke-miterlimit:10;}
	.st1{fill:none;stroke:#005053;stroke-width:4;stroke-linecap:round;stroke-linejoin:round;stroke-miterlimit:10;}
	.st2{fill:none;stroke:#005053;stroke-width:4;stroke-linecap:round;stroke-miterlimit:10;}
	.st3{fill:none;stroke:#EEBE1E;stroke-width:4;stroke-miterlimit:10;}
	.st4{fill:none;stroke:#EEBE1E;stroke-width:4;stroke-linecap:round;stroke-miterlimit:10;}
	.st5{fill:none;stroke:#EEBE1E;stroke-width:4;stroke-linecap:round;stroke-linejoin:round;stroke-miterlimit:10;}
</style>
<path class="st0" d="M9.3-63.08"/>
<polyline class="st1" points="13.14,17.54 13.14,120.79 29.19,120.79 "/>
<path class="st2" d="M77.76,22.16c0,0-6.98-10.4-15.01,0c-8.34,10.8,2.61,24.18,8.26,33.15c9.6,15.24,16.81,31.65,15.07,50.1
	c-0.45,4.83-1.54,12.39-6.57,14.8c-2.82,1.35-7.73,1-10.09-2.05c-1.6-2.07-1.56-4.77-1.43-6.12"/>
<ellipse class="st3" cx="47.32" cy="102.77" rx="8.38" ry="14.42"/>
<path class="st4" d="M162.83,22.54c-3.03,0.14-8.08,0.87-12.57,4.51c-3.41,2.77-7.4,7.53-10.07,24.71
	c-0.63,4.03-2.26,14.85-1.27,34.31c1.27,25.03,5.04,29.18,7.28,31.06c0.34,0.29,8.28,6.77,15.36,3.22
	c4.81-2.42,7.58-8.65,6.64-15.52"/>
<path class="st2" d="M137.22-78.51"/>
<line class="st4" x1="159.04" y1="103.53" x2="170.56" y2="100.57"/>
<path class="st4" d="M170.56,100.57c1.46,5.76,2.93,11.53,4.39,17.29"/>
<path class="st4" d="M200.94,108.18c-1.03,6.48-5.7,10.74-9.87,10.56c-4.78-0.21-8.14-5.2-8.98-10.99
	c-1.02-7.09,2.05-13.83,6.44-17.84c2.91-2.65,7.05-1.8,9.31,1.67c1.28,1.96,2.36,4.76,2.87,7.23c0.74,3.62-14.28,2.53-15.9,1.66"/>
<path class="st2" d="M210.52-56.77"/>
<path class="st2" d="M210.87,14.45c0,35.25,0,70.49,0,105.74"/>
<path class="st2" d="M212.57,80.68c0.64-0.62,8.56-8.06,13.14-2.25c2.63,3.34,2.93,9.48,3.47,20.98c0.44,9.24,0.11,16.91-0.25,22.08
	"/>
<line class="st5" x1="235.92" y1="72.81" x2="254.77" y2="73.05"/>
<path class="st5" d="M245.17,14.45c-0.54,37.62-0.66,67.6-0.7,86.49c-0.01,4.99,0.07,14.56,5.15,18.19
	c2.63,1.88,5.73,1.54,7.59,1.12"/>
<path class="st1" d="M272.85,7.2c-1.18,17.11-5.07,18.99-5.07,18.99"/>
<path class="st1" d="M309.3,16.67c-1.66-1.65-6.49-6.07-10.9-4.73c-4.18,1.28-5.8,6.71-6.64,10.68c-1.61,7.65-1.38,15.22,0.75,22.7
	c2.31,8.07,4.95,16.03,7.31,24.09c4.21,14.4,8.95,33.63-2.39,45.86c-2.66,2.87-6.91,6.5-10.99,5.1c-3.22-1.11-5.48-5.13-5.76-10.11"
	/>
<path class="st1" d="M295.16-24.62"/>
</svg>
