<?xml version="1.0" encoding="utf-8"?>
<!-- Generator: Adobe Illustrator 25.0.0, SVG Export Plug-In . SVG Version: 6.00 Build 0)  -->
<svg version="1.1" id="圖層_1" xmlns="http://www.w3.org/2000/svg" xmlns:xlink="http://www.w3.org/1999/xlink" x="0px" y="0px"
	 viewBox="0 0 87.4 38.8" style="enable-background:new 0 0 87.4 38.8;" xml:space="preserve">
<style type="text/css">
	.st0{fill:#FFFFFF;stroke:#005053;stroke-miterlimit:10;}
	.st1{fill:none;stroke:#005053;stroke-width:1.0279;stroke-linecap:round;stroke-linejoin:round;stroke-miterlimit:10;}
	.st2{fill:none;stroke:#005053;stroke-width:1.0279;stroke-linecap:round;stroke-miterlimit:10;}
	.st3{fill:none;stroke:#EEBE1E;stroke-width:1.0279;stroke-miterlimit:10;}
	.st4{fill:none;stroke:#EEBE1E;stroke-width:1.0279;stroke-linecap:round;stroke-miterlimit:10;}
	.st5{fill:none;stroke:#005053;stroke-width:4;stroke-linecap:round;stroke-miterlimit:10;}
	.st6{fill:none;stroke:#EEBE1E;stroke-width:1.0279;stroke-linecap:round;stroke-linejoin:round;stroke-miterlimit:10;}
	.st7{fill:none;stroke:#005053;stroke-width:4;stroke-linecap:round;stroke-linejoin:round;stroke-miterlimit:10;}
</style>
<path class="st0" d="M2.9-64.8"/>
<polyline class="st1" points="6.7,8.2 6.7,34.7 10.8,34.7 "/>
<path class="st2" d="M23.3,9.4c0,0-1.8-2.7-3.9,0c-2.1,2.8,0.7,6.2,2.1,8.5c2.5,3.9,4.3,8.1,3.9,12.9c-0.1,1.2-0.4,3.2-1.7,3.8
	c-0.7,0.3-2,0.3-2.6-0.5c-0.4-0.5-0.4-1.2-0.4-1.6"/>
<ellipse class="st3" cx="15.5" cy="30.1" rx="2.2" ry="3.7"/>
<path class="st4" d="M45.2,9.5c-0.8,0-2.1,0.2-3.2,1.2c-0.9,0.7-1.9,1.9-2.6,6.3c-0.2,1-0.6,3.8-0.3,8.8c0.3,6.4,1.3,7.5,1.9,8
	c0.1,0.1,2.1,1.7,3.9,0.8c1.2-0.6,1.9-2.2,1.7-4"/>
<path class="st5" d="M130.8-80.2"/>
<line class="st4" x1="44.2" y1="30.3" x2="47.2" y2="29.5"/>
<path class="st4" d="M47.2,29.5c0.4,1.5,0.8,3,1.1,4.4"/>
<path class="st4" d="M55,31.5c-0.3,1.7-1.5,2.8-2.5,2.7c-1.2-0.1-2.1-1.3-2.3-2.8c-0.3-1.8,0.5-3.6,1.7-4.6c0.7-0.7,1.8-0.5,2.4,0.4
	c0.3,0.5,0.6,1.2,0.7,1.9c0.2,0.9-3.7,0.7-4.1,0.4"/>
<path class="st5" d="M204.1-58.4"/>
<path class="st2" d="M57.5,7.4c0,9.1,0,18.1,0,27.2"/>
<path class="st2" d="M58,24.4c0.2-0.2,2.2-2.1,3.4-0.6c0.7,0.9,0.8,2.4,0.9,5.4c0.1,2.4,0,4.3-0.1,5.7"/>
<line class="st6" x1="64" y1="22.4" x2="68.8" y2="22.4"/>
<path class="st6" d="M66.3,7.4c-0.1,9.7-0.2,17.4-0.2,22.2c0,1.3,0,3.7,1.3,4.7c0.7,0.5,1.5,0.4,2,0.3"/>
<path class="st1" d="M73.4,5.5c-0.3,4.4-1.3,4.9-1.3,4.9"/>
<path class="st1" d="M82.8,8c-0.4-0.4-1.7-1.6-2.8-1.2c-1.1,0.3-1.5,1.7-1.7,2.7c-0.4,2-0.4,3.9,0.2,5.8c0.6,2.1,1.3,4.1,1.9,6.2
	c1.1,3.7,2.3,8.6-0.6,11.8C79.1,34,78,35,76.9,34.6c-0.8-0.3-1.4-1.3-1.5-2.6"/>
<path class="st7" d="M288.7-26.3"/>
</svg>
