<?xml version="1.0" encoding="utf-8"?>
<!-- Generator: Adobe Illustrator 25.0.0, SVG Export Plug-In . SVG Version: 6.00 Build 0)  -->
<svg version="1.1" id="圖層_1" xmlns="http://www.w3.org/2000/svg" xmlns:xlink="http://www.w3.org/1999/xlink" x="0px" y="0px"
	 viewBox="0 0 215.2 30.5" style="enable-background:new 0 0 215.2 30.5;" xml:space="preserve">
<style type="text/css">
	.st0{fill:none;stroke:#FEEAC7;stroke-width:10;stroke-miterlimit:10;}
	.st1{opacity:0.62;}
	.st2{fill:#F39800;}
</style>
<g>
	<g>
		<path class="st0" d="M868.77-71.31"/>
	</g>
</g>
<g class="st1">
	<g>
		<g>
			<g>
				<g>
					<path class="st2" d="M152.2,2.22c0.23,0.04,0.11-0.58,0.14-0.7C151.97,1.69,152.22,2.38,152.2,2.22z"/>
					<polygon class="st2" points="148.53,3.89 148.58,3.63 148.07,4.29 					"/>
					<path class="st2" d="M145.02,4.1c0.4,1.05,1.26-0.25,1.91,0.09l0.12,0.24l0.23-0.88C146.52,3.73,145.58,4.36,145.02,4.1z"/>
					<path class="st2" d="M142.99,1.91c0.14,0.41-0.38,0.38,0.45,0.1c-0.05-0.04-0.06-0.07-0.09-0.1
						C143.27,1.92,143.17,1.93,142.99,1.91z"/>
					<path class="st2" d="M143.35,1.91C143.72,1.86,143.08,1.58,143.35,1.91L143.35,1.91z"/>
					<path class="st2" d="M141.66,2.27l0.46-0.41c-0.12-0.24-0.56-0.26-0.41-0.45C141.22,1.65,141.34,1.89,141.66,2.27z"/>
					<path class="st2" d="M141.25,3.08l0.24-0.18C141.44,2.81,141.37,2.78,141.25,3.08z"/>
					<path class="st2" d="M142,2.54l-0.51,0.37c0.08,0.17,0.11,0.51,0.24-0.14C141.71,3.09,141.79,2.78,142,2.54z"/>
					<path class="st2" d="M142.32,2.68c0.29,0.21,0.65,0.33,0.19,0.74C143.43,3.21,143.24,2.46,142.32,2.68z"/>
					<path class="st2" d="M144.92,5.22l0.39,0.29l0.29-0.38C145.45,5.32,144.87,4.88,144.92,5.22z"/>
					<path class="st2" d="M138.58,1.94c-0.01,0.23,0.21,0.59,0.27,0.88l0.34-0.29C138.99,2.39,138.63,2.28,138.58,1.94z"/>
					<path class="st2" d="M138.84,2.82l-0.51,0.43C138.82,3.26,138.89,3.07,138.84,2.82z"/>
					<polygon class="st2" points="141.25,4.28 142.07,3.39 141.08,4.3 					"/>
					<polygon class="st2" points="136.52,2.06 136.78,1.51 136.3,2.35 					"/>
					<path class="st2" d="M135.16,2.26c0.19-0.45-0.37-0.71-0.15-1c-0.37,0.1-0.65,0.5-0.91,0.86
						C134.39,1.91,134.71,1.93,135.16,2.26z"/>
					<path class="st2" d="M133.66,2.64c0.14-0.12,0.29-0.31,0.44-0.53C133.95,2.23,133.8,2.38,133.66,2.64z"/>
					<path class="st2" d="M137.41,3.21c-0.05-0.13-0.16-0.49-0.47-0.62l0.26,0.62C137.26,3.21,137.33,3.21,137.41,3.21z"/>
					<path class="st2" d="M137.2,3.23l-0.01-0.02c-0.23,0-0.39,0-0.46,0C136.79,3.21,136.94,3.22,137.2,3.23z"/>
					<path class="st2" d="M137.46,3.21c-0.02,0-0.03,0-0.05,0C137.43,3.27,137.45,3.29,137.46,3.21z"/>
					<path class="st2" d="M139.79,3.8c-0.29,0.38-0.92,0.81-0.24,1.31C139.74,4.66,139.36,4.37,139.79,3.8z"/>
					<path class="st2" d="M137.78,3.99l0.58,0.1c-0.02-0.17-0.14-0.41,0-0.6L137.78,3.99z"/>
					<polygon class="st2" points="137.52,4.21 137.78,3.99 137.57,3.95 					"/>
					<path class="st2" d="M134.68,3.17c-0.23,0.3-0.49,0.34-0.8,0.41c0.34,0.1,0.68,0.14,1,0.12
						C134.92,3.49,135.03,3.12,134.68,3.17z"/>
					<path class="st2" d="M135.91,3.25l-0.05,0.04C135.9,3.35,135.93,3.36,135.91,3.25z"/>
					<path class="st2" d="M130.88,3.81c0.02,0.04,0.04,0.08,0.06,0.11l0-0.11L130.88,3.81z"/>
					<path class="st2" d="M134.95,3.81c0.26,0.11,0.39-0.06,0.52-0.27c-0.18,0.08-0.37,0.13-0.58,0.15
						C134.88,3.78,134.88,3.84,134.95,3.81z"/>
					<path class="st2" d="M132.84,3c0.14,0.12,0.29,0.22,0.45,0.32C133.15,3.13,132.87,2.83,132.84,3z"/>
					<path class="st2" d="M135.76,3.12c0.01-0.01,0.02-0.02,0.03-0.03C135.71,2.96,135.72,3.03,135.76,3.12z"/>
					<path class="st2" d="M135.76,3.12c-0.12,0.1-0.21,0.27-0.3,0.41c0.15-0.06,0.28-0.14,0.39-0.24
						C135.83,3.25,135.79,3.19,135.76,3.12z"/>
					<path class="st2" d="M130.31,7.99c0-0.6,0.6-1.2,1.2-0.61c0.51-0.49,0-2.41-0.57-3.46c0,0.26,0.02,0.5-0.51,0.89
						c0.22,0.31,1.31,0.65,0.88,1.23c-0.72,0.37-0.63-0.16-1.02-0.44c0.37,0.71-0.86,1.15-0.61,2.22l0.62-0.44
						C130.33,7.56,130.11,7.85,130.31,7.99z"/>
					<path class="st2" d="M132.02,3.89l0.23-0.09c-0.27-0.08-0.48-0.3-0.87-0.74c-0.36,0.32-0.43,0.55-0.44,0.75l1.15-0.01
						L132.02,3.89z"/>
					<path class="st2" d="M133.29,3.71c-0.13,0.66-0.67,0.98-0.27,1.65c0.68-0.1,0.44-0.57,0.82-0.89
						c-1.09,0.24,0.29-0.38-0.54-0.69c0.21-0.13,0.4-0.17,0.58-0.21c-0.2-0.06-0.4-0.15-0.59-0.25c0.01,0.01,0.02,0.03,0.03,0.04
						l0.01,0l0,0.01c0.05,0.08,0.07,0.12,0.02,0.08c0,0.01-0.02,0.01-0.02,0.01C133.32,3.55,133.31,3.63,133.29,3.71
						c-0.33-0.11-0.06-0.17,0.03-0.25c0-0.03,0.01-0.06,0.01-0.1l0-0.01l-1.08,0.44C132.49,3.87,132.78,3.83,133.29,3.71z"/>
					<path class="st2" d="M139.06,6.54c-0.04-0.05-0.04-0.1-0.05-0.15C138.95,6.48,138.93,6.53,139.06,6.54z"/>
					<path class="st2" d="M138.58,6.19c0.07-0.1,0.12-0.36,0.39-0.31c0.24,0.18,0.02,0.31,0.05,0.52c0.14-0.18,0.52-0.5,0-0.78
						l-0.07,0.09c-0.46-0.19-1.09-0.95-1.02-1.05C138.1,5.23,138.25,5.64,138.58,6.19z"/>
					<path class="st2" d="M135.92,5.12l-0.89,0.38l0.51,0.52l-0.05-0.33C136.02,5.78,135.88,5.38,135.92,5.12z"/>
					<polygon class="st2" points="130.75,3.5 130.82,2.81 130.37,3.81 					"/>
					<polygon class="st2" points="129.57,3.68 129.56,3.08 129.28,3.46 					"/>
					<path class="st2" d="M63.47,18.5l-0.24,0.21C63.35,18.63,63.42,18.57,63.47,18.5z"/>
					<path class="st2" d="M65.41,18.26l0.01-0.3C65.35,18.14,65.33,18.26,65.41,18.26z"/>
					<path class="st2" d="M100.3,6.52c-0.45-0.51-0.98-1.32-0.86-0.66l0.19,0.63C99.89,6.35,100.1,6.4,100.3,6.52z"/>
					<path class="st2" d="M80.79,12.72c0.04,0.06,0.09,0.12,0.14,0.18c0.07-0.23,0.13-0.45,0.19-0.65
						C81.01,12.39,80.9,12.55,80.79,12.72z"/>
					<path class="st2" d="M80.85,15.43l-0.57-0.35C80.42,15.2,80.6,15.32,80.85,15.43z"/>
					<path class="st2" d="M53.06,20.74l-0.21,0.7C53.33,21.36,53.07,21.07,53.06,20.74z"/>
					<path class="st2" d="M117.37,4.98c-0.36-0.22-0.64-0.3-0.88-0.31C116.93,5,117.31,5.53,117.37,4.98z"/>
					<path class="st2" d="M63.26,11.55c-0.15,0.14-0.2,0.28-0.17,0.42C63.24,11.84,63.32,11.7,63.26,11.55z"/>
					<path class="st2" d="M115.51,4.75c0.07,0.06,0.13,0.09,0.19,0.14c0.24-0.13,0.48-0.24,0.79-0.23
						C116.16,4.41,115.8,4.27,115.51,4.75z"/>
					<path class="st2" d="M14.97,26.69c-0.03-0.02-0.07-0.03-0.1-0.06C14.88,26.72,14.92,26.72,14.97,26.69z"/>
					<path class="st2" d="M2.66,22.39c0.1-0.06,0.28-0.1,0.45-0.14C3.01,22.22,2.88,22.25,2.66,22.39z"/>
					<path class="st2" d="M124.74,3.79C124.99,3.73,124.77,3.71,124.74,3.79L124.74,3.79z"/>
					<path class="st2" d="M126.19,6.25c-0.05,0.08-0.08,0.17-0.07,0.32C126.12,6.42,126.15,6.32,126.19,6.25z"/>
					<path class="st2" d="M113.38,9.02l-0.02,0C113.45,9.14,113.43,9.12,113.38,9.02z"/>
					<path class="st2" d="M125.15,4.05c-0.1-0.07-0.22-0.13-0.34-0.17C124.86,3.93,124.97,3.99,125.15,4.05z"/>
					<path class="st2" d="M125.07,3.75c0.09,0.02,0.16,0.03,0.23,0.04C125.32,3.68,125.28,3.62,125.07,3.75z"/>
					<path class="st2" d="M124.39,3.85c0.14-0.02,0.28,0,0.42,0.03c-0.05-0.04-0.08-0.07-0.07-0.1
						C124.67,3.81,124.56,3.83,124.39,3.85z"/>
					<path class="st2" d="M35.02,21.34c-0.02-0.02-0.04-0.03-0.06-0.05C34.75,21.59,34.85,21.53,35.02,21.34z"/>
					<path class="st2" d="M94.5,13.96c0.01-0.01,0.02-0.03,0.03-0.03c-0.01-0.01-0.03-0.01-0.04-0.02L94.5,13.96z"/>
					<path class="st2" d="M93.65,14.54c0.29-0.85,0.52-0.78,0.83-0.64l-0.51-1.83L93.65,14.54z"/>
					<path class="st2" d="M58.89,19.35l0.71,0.49c-0.62,1.06-1.22,0.81-0.51,1.54c-0.21-2.03,2.41-0.56,2.21-2.59l0.48,0.36
						c-0.12,0-0.12,0.12-0.24,0.12c0.95,0.85,0.39-1.54,1.47-1.41c0.38,0.1,0.68,0.36,0.47,0.63l0.74-0.62
						c0.24,0.01,0.23,0.36-0.01,0.36l1.21-0.34l0,0.06c0.13-0.34,0.46-0.89,0.63-1.12c0.35,0.24-0.13,0.24-0.01,0.48l0.61-0.59
						c0.35,0.48-0.14,1.07-0.63,1.06c0.92,1.93,0.49-0.6,2.04,0.4l-0.61,0.34c0.58,1.09,1.02,0.61,1.85,1.22
						c-0.22-0.35-1.71-1.6-1.04-2.2c0.23,0.12,0.52,0.16,0.86-0.3c0.1,0.72,0.47,0.49,0.95,0.38l0.1,0.96
						c0.49-0.35,0.38-0.82,0.63-1.29c0.6,0.01,0.82,0.73,1.05,1.34c0.96,0.02-0.81-1.09,0.28-1.42c0.83,0.26,1.33-0.21,2.19-0.9
						c0.59,0.25-0.02,0.59,0.21,0.84l0.39-0.82c0.12,0,0.11,0.24,0.11,0.36c0.37-0.35-0.09-0.96,0.52-1.3
						c0.04-1.07,1.53,1.35,2.17,0.06c0.23,0.25-0.02,0.6,0.09,0.96c0.99-0.92,0.87-0.69,1.63-1.85l0.85,0.53
						c-0.65-0.64-0.04-1.58,0.5-2.35c-0.24-0.32-0.45-0.6-0.59-0.73l0.95-0.64c0.14,0.14,0.08,0.48-0.03,0.9
						c0.06-0.09,0.11-0.17,0.16-0.25c0.41,0.31,0.29,0.88,0.1,1.44c-0.14-0.18-0.29-0.36-0.44-0.54c-0.18,0.61-0.33,1.28-0.2,1.83
						c0.05-0.12,0.17-0.23,0.3-0.3c-0.05,0.17-0.07,0.31-0.03,0.4c0.05,0.1,0.13-0.13,0.26-0.39l0.36,1.03l0-0.43l1.4,0.5
						c0.81-1.19,1.43-2.86,2.88-3.49c-0.28,0.82,0.08,1.28,0.17,2.21c-0.53-0.92-1.11,0.56-1.91,0.46c0.42,0.05,0.38,0.5,0.3,0.67
						l1.27-1.06c0.06,0.76,0.36,0.53,0.76,0.8c-0.45-1.46,0.91-1.11,1.42-1.64c0.1,0.5,0.02,1.02-0.68,0.98
						c0.89,1.03,0.77-1.87,1.63-1c-0.17,0.03-0.27-0.03-0.3,0.23c0.34-0.49,1.34-0.25,1.17,0.21l-0.17,0.03
						c1.13,0.05,3.39-0.39,3.41-1.67c0.03,0.16,0.03,1.55-0.01,1.81l1.5-4.5c-0.05,1.11,0.92,3.62,0.06,4.35
						c0.28,0.12,0.63,0.27,1.15-0.18c-0.2-0.13-0.63-1.52-0.39-1.65c0.82,1.14,0.55,0.6,1.5,1.54c-0.3-0.2-0.19-1.94,0.25-1.94
						c-0.04,0.26,0.22,1.68,0.09,1.88l0.88-1.79c-0.23,0.33,0.11,1.43,0.4,1.87c-0.15-0.32,0.93-0.07,1.19-0.27l-0.5-0.34
						c1.23,0.12,0.93-2.49,2.14-2.53c-0.11,0.36-0.13,2.17,0.5,2.32c0.19-0.89,0.79-4.27,1.79-5.04l0.26,0.47l0.76-0.65
						c-0.37,1.35-1.51,4.22-2.17,5.37c0.49,0.34,0.19,0.57,0.86,0.45c0.29,0.43-0.29,0.74-0.49,0.79l1.6,0.13
						c-0.18-1,1.1-1.14,0.95-1.96l-1.6,1.22c-0.18-0.99,0.69-2.96,1.82-2.89c0.33,0.37-0.03,1.81,0.03,2.14
						c0.11-0.36,0.99-0.77,1.12-0.53l-0.42,0.58c0.66,0.32,0.88-1.43,1.72-0.55c0.26,0.04,0.9,1.22,0.88,0.62
						c-0.53-1.1-0.98-4.64-0.78-5.52c0.1,0.07,1.47,0.96,1.82,1.5c0.51,0.86-0.42,2.2,0.01,2.94c-0.01-0.28,0.19-0.64,0.28-0.76
						c0.29,0.21-0.03,0.86,0.55,0.68c0-1.03,1.2-0.03,0.19-0.89c0.55-0.35,0.63,0.15,1.3,0.04c-0.28-0.64,0.39-2.3,0.94-2.65
						c-0.01,0.26,0.15,0.59,0.23,0.73c1.19-0.03,1.87,0.38,2.97,0.29c0.12,0.24,0.68,0.49,0.5,0.95c0.14-0.19,0.25-0.55,0.59-0.61
						c0.74,0.82-0.74,0.21-0.15,1.22c-0.01-0.6,0.8-0.9,1.25-1.31c-0.23-0.9-1.13-0.07-1.58,0.34c-0.12-1.26,0.6-2.66,1.7-3.34
						c0.89-0.4,0.47,0.78,0.61,0.58c1.74,0.06,1.27-2.34,2.78-1.56c0.64,0.75,0.17,1.6,0.34,2.16c-0.72,0.37-1.19-0.41-1.69-0.33
						l0.66,0.32c-0.21,0.29-0.69,0.54-0.99,0.33c0.54,0.68,2.92-0.13,4.3,0.43c0.21-0.29,0.6-0.6,0.38-0.91l-0.41,0.15
						c-0.44-0.62,0.71-0.96,0.16-1.22c0.53-0.5,1.1-1.27,1.92-0.97l0.23,0.9c-0.04-0.27-0.57-0.5-0.77-0.21
						c0.3-0.43,1.32,1.14,1.58-0.09l-0.61-0.59c0.53-0.51,1.15-1.54,1.88-1.31c-0.4-0.88-0.15,0.12-0.74-0.9
						c0.54,1.28-1.81,0.09-1,1.42c-0.62-1.19-0.93-0.45-1.69-1.44c0.05,0.3,0.29,0.56-0.32,0.46c-0.02,0.09-0.07,0.21-0.11,0.28
						c-0.02-0.01-0.03-0.01-0.04-0.02l0.04,0.03c-0.02,0.05-0.02,0.06,0.01,0.01c0.15,0.12,0.28,0.27,0.34,0.43
						c-0.23,0.72-1.18,0.77-1.46,1.16c-0.36-0.11,0.12-0.36-0.1-0.67l-0.43,0.58c-0.11-0.67-1.03-1.03-0.24-1.5l-0.75,0.04
						c-0.47-0.34-1.09-0.43-1.44-0.11c-0.36-0.11-0.82,0.82-0.56,0.27l-1.13,0.52l-0.03-0.17c-1.16,0.02-2.27,1.33-3.7,0.24
						c-0.37,0.2-0.75,0.45-1.42,0.32l-0.18-0.57c-0.48,0.25-1.55-0.43-1.71,0.19c-0.69-1.51-2.45-0.1-3.35-0.29l0.04,0.76
						c-0.61,0.02-1.16,0.29-1.88,0.67l0.11,0.66c-0.59,0.61-1.71-0.31-2.72-0.14c0.04-0.26,0.31-0.22,0.51-0.09
						c-1.38-1.39-2.45,1.38-3.67,0.39c-0.25,0.27-0.46,0.21-0.67,0.06c0.03,0,0.05-0.02,0.06-0.04c-0.03,0-0.07,0-0.11,0
						c-0.13-0.1-0.27-0.22-0.42-0.31c0.13,0.15,0.26,0.27,0.36,0.32c-0.21,0.04-0.52,0.15-0.82,0.36l-0.21-0.7
						c-0.02,0.01-0.05,0.01-0.07,0.03c-0.34-0.23-0.21,0.37,0.01,0.89c-0.15,0.14-0.28,0.29-0.37,0.48
						c-0.38-1.13-0.78,0.48-1.26-0.72C97.79,7.8,96.4,7.8,96.37,9.08c-0.03-0.16-0.13-0.23,0.04-0.26C96.05,8.71,95.68,8.61,95.4,9
						l-0.25-0.9l-0.63,1.32c-0.53-0.5-0.76-0.8-0.38-1.56c-0.99,1.21-0.86,0.51-1.68,1.7l-0.02-0.6c-0.34,0.06-0.79,0.92-1.05,0.45
						c-0.89-1.03-3.77,0.29-5.85-0.53c0.59,1.69-1-0.67-0.91,0.69c-0.16-0.4-0.46-0.59-0.19-0.99c-0.94,0.53-1.57-0.46-2.12,0.76
						c-0.17-0.4,0.14-0.63,0.01-0.86c-0.07,0.1-0.27,0.4-0.41,0.16c-0.13-0.23,0.1-0.36,0.24-0.56c-1.01,0.2-0.95,1.47-0.88,2.67
						c-0.58-0.5-0.83-0.39-1.1,0.44c-0.23-0.37-0.58-0.73,0.03-0.95c-0.36-0.01-2.24-0.3-2.15,0.66c-0.14-0.23-0.5-0.01-0.58,0.11
						c-0.8,0.04-0.88-0.03-1.65,0.16l0.24,0.13c-0.16,1.19-0.61,0.34-1.23,0.57l0-0.12c-1.55-0.63-0.57,0.48-2.12-0.27l0.17,0.7
						c0.07,1.55-1.38-0.73-2.13-0.04l0.35,0.37c-0.38,0.59-1.54-1.91-2.02-2.04c-0.12-0.12,0.13-0.24,0.25-0.35
						c-1.31-0.74-0.03,0.95-0.88,1.29c-0.23-0.48,0.03-1.31-0.57-1.32c-0.35-0.37-1.5,1.86-2.45,1.02c0.23,0.36,0.46,0.72,0.1,1.07
						c-0.61,0.23-1.91-1.22-2.3,0.08c-0.1-0.09-0.14-0.19-0.16-0.29c-0.44,0.38-1.49,0.75-1.68,1.45c-0.8-2.4-2.81,1.63-3.13-0.64
						l-1.46,0.33l0-0.24c-0.97-0.01-1.22,0.59-1.47,1.18c-0.24-0.12-0.11-0.36-0.11-0.48c-1.45-0.25-1.57-0.13-2.55,1.18l-0.23-0.72
						c-0.25,0.47-2.17-0.85-3.39,0.22c0-0.09,0.01-0.23,0.1-0.35c-1.39,1.09-3.97-1.47-4.1,1.3l-0.9,0.82c1.33,0-0.01,1.19,0.6,1.55
						c-0.48,0.24-1.45-0.59-0.84-0.83l0.12,0.12c0.01-1.43-1.69-0.23-1.81-1.19c-2.54,0.48-5.16,0.11-7.55,0.47l0.46,1.03
						l-0.84,0.08c-0.26-0.21-0.44-0.8,0.16-0.85c-0.42-0.56-0.91,0.68-0.89,0.92c-1.24-0.24,0.24-1.34-0.12-1.3l-0.47,0.16
						l0.13,0.11c-0.32,0.51-0.27,0.98-1,1.05c-0.49-0.14-0.35-0.63-0.53-0.64c-0.01-0.08-0.08-0.1-0.28,0.02l-1.07,0.09l0.57,0.78
						c-0.39,0.5-0.99,0.12-0.34,1.01c-0.97-1.38-4,0.14-4.52-0.24c-0.54,0.74-1.18,0.84-1.99,0.91c0.23,0.14,0.52,1.08-0.19,1.09
						c-0.1-2.02-1.41-0.63-2.22-1.96c0.67,0.85-1.91,0.58-0.89,1.78c-0.6-0.06-0.17-0.73-0.69-1.12c-1.22,1-3.09,0.06-4.73,0.63
						c0.02,0.26,0.38,0.61,0.09,1.06l-1.13-1.13c-0.31,0.19-0.02,1.55-0.8,0.77c0.13,0.2,0.32,0.51,0.11,0.63
						c-3.54-0.65-6.52,2.32-10.32,0.61c0.55,0.41,0.26,0.52-0.08,0.61c0.25,0.08,0.12,0.64,0.24,0.98l-1.59-0.7
						c-0.06,1.02-1.49,0.36-1.44,1.32l0.41-0.25c-0.37,1.21,1.31,2.28,1.51,3.7c0.41-1.38,2.1,1.51,2.82-0.49
						c0.29,0.24-0.11,0.49,0.08,0.8c0.15-0.66,0.46-0.85,1.12-0.7L6.2,27.07c1.69-0.48,2.54-0.04,4.54-0.01l-0.28-0.67
						c0.43,0.02,0.56,0.22,0.79,0.36c0.27-1.15-1.18,0.16-0.97-1.09c0.82,1.32,2.93-0.53,3.61,1.01c0.64-0.11-0.34-0.77,0.3-0.88
						l0.25,0.4l0.05-0.59c0.44,0.01,0.75,0.52,0.83,0.89c-0.11-0.02-0.27,0.16-0.37,0.21c0.64,0.41,1.5-0.46,1.71-0.33l-0.66-0.15
						c1.66-0.74,3.89-0.57,5.42-1.75l-0.19-0.31c1.18-0.84,1.1,0.18,2.46-0.36l-0.04,0.09c0.22-0.38,0.57-0.61,0.97-0.65
						c-0.29,0.45,0.81,0.63,0.41,1.14c1.28-0.91,0.6-0.64,1.3-2.03l0.31,0.51c0.23-0.55,0.21-0.82,0.89-1.09
						c-0.5,0.57,0.6,0.75,0.06,1.49c1.69,0.93,1.99-1.6,2.97,0.04c0.42-1.63-1.43-0.62-1.11-1.01c-0.41-0.44,0.36-1.23,0.86-1.16
						c0.48-0.05,1.14,1.8,2.33,1.57c-0.12,0.01-0.11,0.13-0.23,0.14c0.51,0.31,0.78-0.67,1.44-0.14c0.15-0.97,0.72-0.07,0.61-1.25
						l-1.05,0.46c0.57-0.41,0.92-1.88,2.05-1.39c-0.04,0.25-0.29,0.61-0.47,0.82c0.36,0.29,0.54-0.33,0.91-0.03
						c0.11,1.19-1.29,0.48-1.8,1.49c0.4,0.44,1.11-1.06,0.99,0.26c0.21-1.7,1.21,0,1.81-1.37l0.06,0.71
						c0.11-0.13,0.32-0.51,0.56-0.53l-0.27,0.98c0.52-0.89,1.37,0.46,1.93-0.06c-1.31,0.24-0.44-0.8-1.08-1.22
						c1.46-1.21,1.24,1.68,2.99,1.05c-0.23,0.14-0.99-0.27-0.66-0.66c0.37,0.09,0.87,0.28,1.14,0.62c1.18-0.34-0.3-0.69,0.14-1.21
						c0.55,0.79,0.53-0.44,1.02-0.8l0.12,0.71c1.44,0.24,0.12-1.55,1.45-1.19l-0.36,1.08l0.6-0.36l0,0.83
						c0.6-0.72,0.84-0.6,1.57-0.48c-0.24-0.48-0.12-1.31,0.49-1.43c0.48,0.36-0.12,0.72,0.72,0.48c-0.12,0.48-0.25,1.07-0.73,0.48
						c0,0.24-0.12,0.48-0.12,0.72c0.52,0.42,1.14-0.07,1.45-0.13c-0.12-0.01-0.27-0.02-0.36-0.11l1.09-1.19
						c0.24,0.24,0.12,0.48,0,0.71c0.24-0.12,0.36-0.47,0.73-0.59c-0.01,0.6,0.11,1.19-0.37,1.55l1.09-0.83
						c0.12,0.24,0.72,0.6,0.6,0.84c0.71,0.24,1.44-1.37,2.38-1.06c0.03-0.12,0.1-0.24,0.28-0.35c0.84,0.01,1.68,0.61,2.53-0.34
						l0.71,0.96c0.73-0.35-0.94-1.2,0.27-1.79c0.85-0.47,0.47,0.84,0.83,1.08c0.37-0.59,0.99-1.77,1.94-1.04
						C59.37,19.36,59.13,19.23,58.89,19.35z M68.23,17.54c-0.16,0.17-0.46,0.69-0.65,0.28C67.67,16.97,67.89,17.34,68.23,17.54z
						 M82.35,13.92c-0.11,0.25-0.33,0.16-0.6-0.08C81.91,13.76,82.11,13.77,82.35,13.92z M122.02,4.62
						c-0.01,0.01-0.01,0.02-0.02,0.04C121.56,4.41,121.72,4.51,122.02,4.62z M122.9,4.85c0.08-0.11,0.06-0.21,0.02-0.31
						c-0.04,0.19-0.23,0.22-0.46,0.19C122.54,4.92,122.66,5.04,122.9,4.85z M31.53,16.99l0.2,0.16
						C31.39,17.42,31.46,17.21,31.53,16.99z"/>
					<path class="st2" d="M80.85,15.11c-0.07-0.11-0.1-0.25-0.13-0.38C80.66,14.86,80.68,15,80.85,15.11z"/>
					<path class="st2" d="M53.1,20.61c-0.01,0-0.02,0-0.03,0c-0.01,0.05-0.01,0.09-0.01,0.13L53.1,20.61z"/>
					<path class="st2" d="M110.27,12.2c-0.19-0.09-0.3-0.21-0.37-0.34C109.9,12.04,109.99,12.18,110.27,12.2z"/>
					<path class="st2" d="M127.33,3.25l-0.53,0.23c0.26-0.06,0.37,0.09,0.51,0.2C127.29,3.51,127.16,3.27,127.33,3.25z"/>
					<path class="st2" d="M132.45,7.32c0.07-0.09,0.17-0.02,0.24-0.12l-0.05-0.33C132.3,6.92,132.09,7.21,132.45,7.32z"/>
					<path class="st2" d="M128.04,5.6c0.09,0.6,0.42,0.37,0.79,0.23c-0.02,0-0.04,0.01-0.07,0.01
						C128.81,4.98,128.42,5.29,128.04,5.6z"/>
					<path class="st2" d="M128.92,5.8c0.12-0.04,0.24-0.06,0.35-0.04C129.29,5.41,129.12,5.7,128.92,5.8z"/>
					<path class="st2" d="M123.95,4.36c0.2,0.14,0.05-0.79,0.17-0.55C124.26,3.02,122.99,4.84,123.95,4.36z"/>
					<polygon class="st2" points="128.52,7.58 128.32,6.84 128.15,7.46 					"/>
					<path class="st2" d="M125.45,7.28l0.63,0.16c-0.02-0.12,0.05-0.2,0.14-0.27C125.84,7.17,125.41,7.05,125.45,7.28z"/>
					<path class="st2" d="M126.22,7.16c0.2,0,0.38-0.03,0.48-0.16C126.59,7.02,126.37,7.06,126.22,7.16z"/>
					<polygon class="st2" points="127.7,7.87 127.5,7.73 127.07,7.71 					"/>
					<path class="st2" d="M118.86,7.72l-0.65,0.28c-0.04,0.26,0.15,0.4,0.39,0.28C118.74,8.08,118.98,7.95,118.86,7.72z"/>
					<path class="st2" d="M121.06,9.58c-0.19-0.14-0.22-0.3-0.34-0.54l0.06,0.93L121.06,9.58z"/>
					<path class="st2" d="M119.13,9.98c-0.04,0.26-0.9,0.83-0.06,0.69C119.12,10.41,119.77,10.13,119.13,9.98z"/>
					<polygon class="st2" points="108.98,9.77 109.15,9.74 108.97,8.22 					"/>
					<path class="st2" d="M100.53,14.32c0.83,0.28,0.09-0.96,0.85-0.58c0.15-0.38-0.62-0.31-0.47-0.64
						C100.48,13.54,100.21,13.35,100.53,14.32z"/>
					<path class="st2" d="M100.91,13.11c0.07-0.07,0.14-0.15,0.22-0.26C101,12.96,100.95,13.04,100.91,13.11z"/>
					<polygon class="st2" points="0.66,21.95 0.09,21.73 0.52,22.17 					"/>
					<path class="st2" d="M-0.08,23.25l-0.31-0.93l-0.13,0.92C-0.42,23.18-0.21,23.05-0.08,23.25z"/>
					<path class="st2" d="M69.9,19.29l0.01-0.24c-0.11-0.24-0.23-0.24-0.47-0.25L69.9,19.29z"/>
					<polygon class="st2" points="62.98,19.53 63.1,19.54 62.75,18.7 					"/>
					<path class="st2" d="M57.41,21.47c0.24,0,0.48-0.24,0.72-0.23C57.65,21.47,57.19,20.4,57.41,21.47z"/>
				</g>
			</g>
		</g>
	</g>
</g>
</svg>
